HIERARCHY
ROOT Hips
{
	OFFSET 0.000000 0.000000 0.000000
	CHANNELS 6 Xposition Yposition Zposition Zrotation Yrotation Xrotation 
	JOINT LHipJoint
	{
		OFFSET 0.000000 0.000000 0.000000
		CHANNELS 3 Zrotation Yrotation Xrotation
		JOINT LeftUpLeg
		{
			OFFSET 1.363060 -1.794630 0.839290
			CHANNELS 3 Zrotation Yrotation Xrotation
			JOINT LeftLeg
			{
				OFFSET 2.448110 -6.726130 0.000000
				CHANNELS 3 Zrotation Yrotation Xrotation
				JOINT LeftFoot
				{
					OFFSET 2.562200 -7.039590 0.000000
					CHANNELS 3 Zrotation Yrotation Xrotation
					JOINT LeftToeBase
					{
						OFFSET 0.157640 -0.433110 2.322550
						CHANNELS 3 Zrotation Yrotation Xrotation
						End Site
						{
							OFFSET 0.000000 0.000000 0.000000
						}
					}
				}
			}
		}
	}
	JOINT RHipJoint
	{
		OFFSET 0.000000 0.000000 0.000000
		CHANNELS 3 Zrotation Yrotation Xrotation
		JOINT RightUpLeg
		{
			OFFSET -1.305520 -1.794630 0.839290
			CHANNELS 3 Zrotation Yrotation Xrotation
			JOINT RightLeg
			{
				OFFSET -2.542530 -6.985550 0.000000
				CHANNELS 3 Zrotation Yrotation Xrotation
				JOINT RightFoot
				{
					OFFSET -2.568260 -7.056230 0.000000
					CHANNELS 3 Zrotation Yrotation Xrotation
					JOINT RightToeBase
					{
						OFFSET -0.164730 -0.452590 2.363150
						CHANNELS 3 Zrotation Yrotation Xrotation
						End Site
						{
							OFFSET 0.000000 0.000000 0.000000
						}
					}
				}
			}
		}
	}
}
MOTION
Frames: 10
Frame Time: 0.008333
6.092889 16.739668 -7.026291 -175.155640 33.543903 -174.689334 -8.630370 2.351128 -0.154852 -25.212978 23.084409 -36.875385 -3.112318 0.447840 25.424369 3.913003 17.164132 -20.645624 175.996300 -0.000000 -6.079700 11.360138 -4.608825 -0.213415 -8.749111 -17.902761 9.835221 -0.859421 -1.640833 24.889002 -1.947390 -1.201496 41.783668 -0.125800 0.000000 -80.447200
6.162362 16.734690 -7.189217 -175.186675 32.822252 -174.788960 -8.677285 2.432648 -0.244995 -25.039596 23.267708 -36.550261 -3.110858 0.569072 26.317719 3.719829 16.426028 -20.262185 176.247300 0.000000 -5.814000 11.400494 -4.519737 -0.196774 -8.465634 -17.407562 9.310268 -0.944119 -1.682747 26.841906 -2.093613 -3.005063 41.308331 -1.401100 -0.000000 -76.433501
6.228772 16.728489 -7.347165 -175.224933 32.001966 -174.902123 -8.729032 2.502032 -0.317679 -24.788918 23.244758 -36.108399 -3.094662 0.682183 27.192360 3.552260 15.767236 -19.980804 176.445300 -0.000000 -5.391800 11.433159 -4.414763 -0.233947 -8.121517 -17.010852 8.700918 -1.023523 -1.748688 28.961278 -2.232298 -5.113217 40.098877 -2.848100 0.000000 -72.712800
6.292196 16.721478 -7.500697 -175.272945 31.109339 -175.026703 -8.784006 2.558566 -0.371546 -24.475106 23.024190 -35.540096 -3.063957 0.782430 28.017097 3.419738 15.235461 -19.822503 176.579800 0.000000 -4.838800 11.458722 -4.297697 -0.317556 -7.729900 -16.695805 7.988301 -1.096930 -1.840506 31.237627 -2.359897 -7.345969 38.153462 -4.280600 -0.000000 -69.207900
6.352732 16.714240 -7.650684 -175.327023 30.175429 -175.153749 -8.841226 2.601889 -0.407965 -24.115877 22.633780 -34.852839 -3.021088 0.866850 28.765449 3.326714 14.856969 -19.796923 176.647500 -0.000000 -4.183000 11.476530 -4.172519 -0.432594 -7.285316 -16.414156 7.166497 -1.163678 -1.954868 33.619733 -2.478749 -9.572513 35.564039 -5.555300 -0.000000 -66.192700
6.410555 16.707352 -7.797982 -175.390677 29.231109 -175.277547 -8.898626 2.633658 -0.428277 -23.738741 22.109214 -34.062851 -2.969585 0.933579 29.414604 3.274283 14.643186 -19.901263 176.649200 0.000000 -3.455401 11.488193 -4.042935 -0.563591 -6.800212 -16.133350 6.217806 -1.221590 -2.087665 36.077431 -2.588229 -11.652137 32.418639 -6.536100 0.000000 -63.597800
6.465992 16.701468 -7.943332 -175.465127 28.306727 -175.391364 -8.955449 2.655419 -0.436555 -23.365041 21.498935 -33.195390 -2.913909 0.982656 29.949938 3.258785 14.582941 -20.121069 176.591200 0.000000 -2.690600 11.494229 -3.912196 -0.692545 -6.274507 -15.806926 5.138112 -1.268748 -2.232163 38.557816 -2.690426 -13.503576 28.862390 -7.156200 -0.000000 -61.428900
6.519103 16.697151 -8.087470 -175.548714 27.427583 -175.488402 -9.011326 2.669427 -0.437368 -23.014860 20.852939 -32.277566 -2.858253 1.015099 30.363361 3.273789 14.651086 -20.432324 176.483200 -0.000000 -1.921800 11.495634 -3.782927 -0.803425 -5.716359 -15.400238 3.923776 -1.303272 -2.381723 41.016292 -2.785339 -15.069654 25.044880 -7.392699 -0.000000 -59.562500
6.570283 16.694840 -8.230856 -175.645517 26.613215 -175.566636 -9.065273 2.678714 -0.435582 -22.704458 20.219035 -31.334999 -2.806665 1.032718 30.652644 3.310650 14.811015 -20.804116 176.338700 0.000000 -1.182301 11.494463 -3.656721 -0.884304 -5.140854 -14.894390 2.574017 -1.323910 -2.531224 43.420561 -2.869415 -16.308651 21.095664 -7.257101 -0.000000 -57.734200
6.619740 16.694966 -8.373725 -175.753327 25.877263 -175.621052 -9.118950 2.684707 -0.436500 -22.438777 19.641556 -30.396224 -2.762139 1.038043 30.825361 3.359152 15.018322 -21.202416 176.174200 -0.000000 -0.488000 11.489924 -3.533931 -0.922181 -4.546537 -14.258069 1.101936 -1.332134 -2.673375 45.710478 -2.945430 -17.255022 17.231418 -6.844500 0.000000 -56.231200
